<svg width="24" height="24" viewBox="0 0 24 24" fill="none" xmlns="http://www.w3.org/2000/svg">
<path d="M13.73 21C13.5542 21.3031 13.3019 21.5547 12.9982 21.7295C12.6946 21.9044 12.3504 21.9965 12 21.9965C11.6496 21.9965 11.3054 21.9044 11.0018 21.7295C10.6982 21.5547 10.4458 21.3031 10.27 21" stroke="#696969" stroke-width="2" stroke-linecap="round" stroke-linejoin="round"/>
<path fill-rule="evenodd" clip-rule="evenodd" d="M19.2831 11.3758C19.5526 12.8486 19.9757 13.9087 20.378 14.6462C20.7098 15.2545 21.0329 15.6535 21.2573 15.8904C21.3698 16.0091 21.4581 16.0878 21.5114 16.1322C21.538 16.1544 21.5558 16.168 21.5635 16.1737L21.5664 16.1758C21.9249 16.4221 22.0835 16.8725 21.9572 17.2898C21.8295 17.7116 21.4407 18 21.0001 18H3.00008C2.55941 18 2.17068 17.7116 2.04299 17.2898C1.91664 16.8725 2.07528 16.4221 2.43377 16.1758L2.43663 16.1737C2.44432 16.168 2.46218 16.1544 2.4888 16.1322C2.54202 16.0878 2.6304 16.0091 2.74288 15.8904C2.9673 15.6535 3.29039 15.2545 3.62218 14.6462C4.28301 13.4347 5.00008 11.3527 5.00008 8.00003C5.00008 6.14351 5.73758 4.36303 7.05033 3.05028C8.31751 1.7831 10.0205 1.05192 11.807 1.00269C11.1915 1.64484 10.7064 2.4131 10.3945 3.26481C9.67435 3.50902 9.01242 3.91662 8.46454 4.46449C7.52686 5.40217 7.00008 6.67394 7.00008 8.00003C7.00008 11.6474 6.21715 14.0654 5.37797 15.6039C5.30188 15.7434 5.22549 15.8753 5.1494 16H18.8508C18.7747 15.8753 18.6983 15.7434 18.6222 15.6039C18.1327 14.7064 17.6623 13.5097 17.3553 11.9443C18.0368 11.8547 18.685 11.6595 19.2831 11.3758Z" fill="#696969"/>
<circle cx="16.5" cy="5.5" r="4.5" fill="#FD7F8E"/>
</svg>
