<svg width="375" height="588" viewBox="0 0 375 588" fill="none" xmlns="http://www.w3.org/2000/svg">
<g filter="url(#filter0_dd)">
<path d="M183.922 328C203.853 328 266 230.338 266 210.379C266 194.822 221.286 194.167 192.539 217.075C162.066 241.359 172.002 265.091 179.873 266.509C197.855 269.749 201.881 230.963 215.892 232.761C229.903 234.558 210.484 263.823 201.319 273.878C192.155 283.933 170.512 288.66 160.135 267.338C156.729 260.338 155.016 244.454 162.177 229.985C169.339 215.517 180.931 213.535 176.956 203.813C174.138 196.919 123.127 197.181 112.995 206.224C91.3679 225.525 163.657 328 183.922 328Z" fill="url(#paint0_linear)"/>
</g>
<defs>
<filter id="filter0_dd" x="-141" y="-41" width="657" height="629" filterUnits="userSpaceOnUse" color-interpolation-filters="sRGB">
<feFlood flood-opacity="0" result="BackgroundImageFix"/>
<feColorMatrix in="SourceAlpha" type="matrix" values="0 0 0 0 0 0 0 0 0 0 0 0 0 0 0 0 0 0 127 0"/>
<feOffset dy="10"/>
<feGaussianBlur stdDeviation="125"/>
<feColorMatrix type="matrix" values="0 0 0 0 0.992157 0 0 0 0 0.498039 0 0 0 0 0.556863 0 0 0 0.25 0"/>
<feBlend mode="normal" in2="BackgroundImageFix" result="effect1_dropShadow"/>
<feColorMatrix in="SourceAlpha" type="matrix" values="0 0 0 0 0 0 0 0 0 0 0 0 0 0 0 0 0 0 127 0"/>
<feOffset dy="4"/>
<feGaussianBlur stdDeviation="5"/>
<feColorMatrix type="matrix" values="0 0 0 0 0.992157 0 0 0 0 0.498039 0 0 0 0 0.556863 0 0 0 0.25 0"/>
<feBlend mode="normal" in2="effect1_dropShadow" result="effect2_dropShadow"/>
<feBlend mode="normal" in="SourceGraphic" in2="effect2_dropShadow" result="shape"/>
</filter>
<linearGradient id="paint0_linear" x1="187.5" y1="199" x2="187.5" y2="328" gradientUnits="userSpaceOnUse">
<stop stop-color="#FFA882"/>
<stop offset="1" stop-color="#FD7F8E"/>
</linearGradient>
</defs>
</svg>
