<svg width="71" height="71" viewBox="0 0 71 71" fill="none" xmlns="http://www.w3.org/2000/svg">
<path d="M41.4167 5.91675H17.75C16.1808 5.91675 14.6759 6.54011 13.5663 7.6497C12.4567 8.75929 11.8334 10.2642 11.8334 11.8334V59.1668C11.8334 60.7359 12.4567 62.2409 13.5663 63.3505C14.6759 64.4601 16.1808 65.0834 17.75 65.0834H53.25C54.8192 65.0834 56.3242 64.4601 57.4337 63.3505C58.5433 62.2409 59.1667 60.7359 59.1667 59.1668V23.6667L41.4167 5.91675Z" stroke="#ACACAC" stroke-width="2.5" stroke-linecap="round" stroke-linejoin="round"/>
<path d="M41.4166 5.91675V23.6667H59.1666" stroke="#ACACAC" stroke-width="2.5" stroke-linecap="round" stroke-linejoin="round"/>
<path d="M47.3333 38.4583H23.6666" stroke="#ACACAC" stroke-width="2.5" stroke-linecap="round" stroke-linejoin="round"/>
<path d="M47.3333 50.2917H23.6666" stroke="#ACACAC" stroke-width="2.5" stroke-linecap="round" stroke-linejoin="round"/>
<path d="M29.5833 26.625H26.625H23.6666" stroke="#ACACAC" stroke-width="2.5" stroke-linecap="round" stroke-linejoin="round"/>
</svg>
